<?xml version="1.0" encoding="UTF-8" standalone="no"?><!-- Generator: Gravit.io --><svg xmlns="http://www.w3.org/2000/svg" xmlns:xlink="http://www.w3.org/1999/xlink" style="isolation:isolate" viewBox="-465.746 -906.215 1110.752 1295.019" width="1110.752pt" height="1295.019pt"><defs><clipPath id="_clipPath_X6O8squuTSZaaSKL2Hjzu4AxEB5RagLa"><rect x="-465.746" y="-906.215" width="1110.752" height="1295.019"/></clipPath></defs><g clip-path="url(#_clipPath_X6O8squuTSZaaSKL2Hjzu4AxEB5RagLa)"><linearGradient id="_lgradient_0" x1="0.504208529454757" y1="1.547779784250094" x2="0.5000000000000001" y2="4.440892098500626e-16" gradientTransform="matrix(1110.752,0,0,1295.019,-465.746,-906.215)" gradientUnits="userSpaceOnUse"><stop offset="0%" stop-opacity="1" style="stop-color:rgb(224,103,212)"/><stop offset="100%" stop-opacity="1" style="stop-color:rgb(152,103,224)"/></linearGradient><path d=" M 145.566 388.803 L 307.611 221.843 L 487.88 36.105 L 487.876 36.101 C 585.103 -63.945 645.006 -200.452 645.006 -350.839 C 645.006 -657.36 396.151 -906.215 89.63 -906.215 C -216.89 -906.215 -465.746 -657.36 -465.746 -350.839 C -465.746 -57.578 -237.953 182.9 50.194 203.155 L 51.507 -96.486 L 51.507 -238.412 L -147.581 -51.032 Q -192.177 -160.68 -114.619 -280.118 L -291.064 -284.034 Q -252.285 -426.969 -50.634 -430.885 L -172.788 -558.155 Q -40.939 -632.559 96.727 -489.625 Q 203.369 -622.769 368.18 -565.987 L 234.393 -426.969 Q 410.837 -436.759 480.64 -285.992 L 304.195 -284.034 Q 381.753 -166.554 337.157 -35.368 L 145.566 -230.72 L 145.566 388.803 Z " fill-rule="evenodd" fill="url(#_lgradient_0)"/></g></svg>