<?xml version="1.0" encoding="UTF-8" standalone="no"?><!-- Generator: Gravit.io --><svg xmlns="http://www.w3.org/2000/svg" xmlns:xlink="http://www.w3.org/1999/xlink" style="isolation:isolate" viewBox="-465.746 -906.215 1110.752 1295.019" width="1110.752pt" height="1295.019pt"><defs><clipPath id="_clipPath_8rJeJ9RPeIaUojM6bzQtK5M62PRX9fKv"><rect x="-465.746" y="-906.215" width="1110.752" height="1295.019"/></clipPath></defs><g clip-path="url(#_clipPath_8rJeJ9RPeIaUojM6bzQtK5M62PRX9fKv)"><path d=" M 145.566 388.803 L 307.611 221.843 L 487.88 36.105 L 487.876 36.101 C 585.103 -63.945 645.006 -200.452 645.006 -350.839 C 645.006 -657.36 396.151 -906.215 89.63 -906.215 C -216.89 -906.215 -465.746 -657.36 -465.746 -350.839 C -465.746 -57.578 -237.953 182.9 50.194 203.155 L 51.507 -96.486 L 51.507 -238.412 L -147.581 -51.032 Q -192.177 -160.68 -114.619 -280.118 L -291.064 -284.034 Q -252.285 -426.969 -50.634 -430.885 L -172.788 -558.155 Q -40.939 -632.559 96.727 -489.625 Q 203.369 -622.769 368.18 -565.987 L 234.393 -426.969 Q 410.837 -436.759 480.64 -285.992 L 304.195 -284.034 Q 381.753 -166.554 337.157 -35.368 L 145.566 -230.72 L 145.566 388.803 Z " fill-rule="evenodd" fill="rgb(255,255,255)"/></g></svg>