<?xml version="1.0" encoding="UTF-8" standalone="no"?><!-- Generator: Gravit.io --><svg xmlns="http://www.w3.org/2000/svg" xmlns:xlink="http://www.w3.org/1999/xlink" style="isolation:isolate" viewBox="442.861 158.804 344.278 401.391" width="344.278pt" height="401.391pt"><defs><clipPath id="_clipPath_mwaJr7BDGxziu44hC1TyzUQOPNmx5Le0"><rect x="442.861" y="158.804" width="344.278" height="401.391"/></clipPath></defs><g clip-path="url(#_clipPath_mwaJr7BDGxziu44hC1TyzUQOPNmx5Le0)"><linearGradient id="_lgradient_6" x1="0.504208529454757" y1="1.547779784250094" x2="0.5000000000000001" y2="4.440892098500626e-16" gradientTransform="matrix(344.278,0,0,401.391,442.861,158.804)" gradientUnits="userSpaceOnUse"><stop offset="0%" stop-opacity="1" style="stop-color:rgb(224,103,212)"/><stop offset="100%" stop-opacity="1" style="stop-color:rgb(152,103,224)"/></linearGradient><path d=" M 632.337 560.196 L 682.563 508.446 L 738.438 450.877 L 738.436 450.875 C 768.572 419.866 787.139 377.556 787.139 330.943 C 787.139 235.937 710.006 158.804 615 158.804 C 519.994 158.804 442.861 235.937 442.861 330.943 C 442.861 421.84 513.465 496.376 602.777 502.654 L 603.184 409.78 L 603.184 365.79 L 541.476 423.869 Q 527.654 389.883 551.693 352.863 L 497.004 351.649 Q 509.023 307.347 571.525 306.133 L 533.663 266.686 Q 574.53 243.624 617.2 287.927 Q 650.253 246.659 701.337 264.258 L 659.869 307.347 Q 714.558 304.313 736.193 351.043 L 681.504 351.649 Q 705.544 388.063 691.721 428.724 L 632.337 368.174 L 632.337 560.196 Z " fill-rule="evenodd" fill="url(#_lgradient_6)"/></g></svg>