<?xml version="1.0" encoding="UTF-8" standalone="no"?><!-- Generator: Gravit.io --><svg xmlns="http://www.w3.org/2000/svg" xmlns:xlink="http://www.w3.org/1999/xlink" style="isolation:isolate" viewBox="108.294 1276.364 746.537 301.849" width="746.537pt" height="301.849pt"><defs><clipPath id="_clipPath_NDm0bCZVRML33kLycMj48MeX79cUuxQN"><rect x="108.294" y="1276.364" width="746.537" height="301.849"/></clipPath></defs><g clip-path="url(#_clipPath_NDm0bCZVRML33kLycMj48MeX79cUuxQN)"><g><linearGradient id="_lgradient_0" x1="0.504208529454757" y1="1.547779784250094" x2="0.5000000000000001" y2="4.440892098500626e-16" gradientTransform="matrix(255.041,0,0,254.724,108.294,1276.364)" gradientUnits="userSpaceOnUse"><stop offset="0%" stop-opacity="1" style="stop-color:rgb(224,103,212)"/><stop offset="100%" stop-opacity="1" style="stop-color:rgb(152,103,224)"/></linearGradient><path d=" M 248.658 1530.765 C 313.017 1524.316 363.336 1469.93 363.336 1403.885 C 363.336 1333.504 306.196 1276.364 235.815 1276.364 C 165.435 1276.364 108.294 1333.504 108.294 1403.885 C 108.294 1471.221 160.598 1526.437 226.76 1531.088 L 227.061 1462.287 L 227.061 1429.699 L 181.349 1472.724 Q 171.109 1447.547 188.917 1420.123 L 148.403 1419.224 Q 157.307 1386.404 203.609 1385.505 L 175.561 1356.283 Q 205.835 1339.199 237.444 1372.018 Q 261.931 1341.447 299.773 1354.484 L 269.054 1386.404 Q 309.568 1384.157 325.595 1418.774 L 285.082 1419.224 Q 302.89 1446.199 292.65 1476.32 L 248.658 1431.465 L 248.658 1530.765 Z " fill-rule="evenodd" fill="url(#_lgradient_0)"/><g clip-path="url(#_clipPath_vT4TMSVVXtdOomji2yzpWaR7uLefiMkx)"><text transform="matrix(0.535,0,0,0.535,363.336,1516.06)" style="font-family:'Montserrat';font-weight:700;font-size:463px;font-style:normal;fill:#9867e0;stroke:none;">asis</text></g><defs><clipPath id="_clipPath_vT4TMSVVXtdOomji2yzpWaR7uLefiMkx"><rect x="0" y="0" width="919" height="564.397" transform="matrix(0.535,0,0,0.535,363.336,1276.364)"/></clipPath></defs></g></g></svg>